<svg xmlns="http://www.w3.org/2000/svg" aria-hidden="true" style="position:absolute;width:0;height:0;overflow:hidden"><defs><symbol id="icon-arrow-down" viewBox="0 0 32 32"><path fill="none" stroke="#717182" stroke-linecap="round" stroke-linejoin="round" stroke-width="2.667" d="m8 12 8 8 8-8" style="stroke:var(--color1, #717182)"/></symbol><symbol id="icon-arrow-left" viewBox="0 0 32 32"><path fill="none" stroke="#fff" stroke-linecap="round" stroke-linejoin="round" stroke-width="2.667" d="M24.4 15.41H6.421m0 0 8.989 8.989M6.421 15.41l8.989-8.989" style="stroke:var(--color2, #fff)"/></symbol><symbol id="icon-arrow-right" viewBox="0 0 32 32"><path fill="none" stroke="#fff" stroke-linecap="round" stroke-linejoin="round" stroke-width="2.667" d="M6.421 15.411H24.4m0 0-8.989-8.989m8.989 8.989L15.411 24.4" style="stroke:var(--color2, #fff)"/></symbol><symbol id="icon-canvas" viewBox="0 0 32 32"><path fill="#fd9867" stroke="#fd9867" stroke-linecap="round" stroke-linejoin="round" stroke-width="2" d="M18 9.333a.667.667 0 1 0 0-1.334.667.667 0 0 0 0 1.334m5.333 5.334a.667.667 0 1 0-.001-1.335.667.667 0 0 0 .001 1.335m-12-4a.667.667 0 1 0-.001-1.335.667.667 0 0 0 .001 1.335m-2.666 6.666a.667.667 0 1 0 0-1.334.667.667 0 0 0 0 1.334" style="fill:var(--color3, #fd9867);stroke:var(--color3, #fd9867)"/><path fill="none" stroke="#fd9867" stroke-linecap="round" stroke-linejoin="round" stroke-width="2" d="M16 2.667c-7.333 0-13.333 6-13.333 13.333s6 13.333 13.333 13.333c1.235 0 2.197-.995 2.197-2.251 0-.583-.24-1.113-.583-1.5-.387-.385-.584-.869-.584-1.5a2.19 2.19 0 0 1 2.224-2.224h2.661c4.068 0 7.407-3.337 7.407-7.405-.036-6.437-6.041-11.787-13.323-11.787z" style="stroke:var(--color3, #fd9867)"/></symbol><symbol id="icon-chair" viewBox="0 0 32 32"><path fill="none" stroke="#fd9867" stroke-linecap="round" stroke-linejoin="round" stroke-width="2.286" d="m20 17.334 4.944 9.888M4 25.334a20 20 0 0 0 24 0M4 2.667l4.28 12.844a2.66 2.66 0 0 0 2.532 1.822H24m-12 .001-4.944 9.888" style="stroke:var(--color3, #fd9867)"/></symbol><symbol id="icon-circle" viewBox="0 0 32 32"><path fill="none" stroke="#fff" stroke-linecap="round" stroke-linejoin="round" stroke-width="2" d="M16 29.333c7.364 0 13.333-5.97 13.333-13.333S23.363 2.667 16 2.667 2.667 8.637 2.667 16 8.637 29.333 16 29.333" style="stroke:var(--color2, #fff)"/><path fill="none" stroke="#fff" stroke-linecap="round" stroke-linejoin="round" stroke-width="2" d="M16 24a8 8 0 1 0 0-16 8 8 0 0 0 0 16" style="stroke:var(--color2, #fff)"/><path fill="none" stroke="#fff" stroke-linecap="round" stroke-linejoin="round" stroke-width="2" d="M16 18.667a2.667 2.667 0 1 0 0-5.334 2.667 2.667 0 0 0 0 5.334" style="stroke:var(--color2, #fff)"/></symbol><symbol id="icon-clock" viewBox="0 0 32 32"><path fill="none" stroke="#fd9867" stroke-linecap="round" stroke-linejoin="round" stroke-width="2" d="M16 29.333c7.364 0 13.333-5.97 13.333-13.333S23.363 2.667 16 2.667 2.667 8.637 2.667 16 8.637 29.333 16 29.333" style="stroke:var(--color3, #fd9867)"/><path fill="none" stroke="#fd9867" stroke-linecap="round" stroke-linejoin="round" stroke-width="2" d="M16 8v8l5.333 2.667" style="stroke:var(--color3, #fd9867)"/></symbol><symbol id="icon-close" viewBox="0 0 32 32"><path fill="none" stroke="#fff" stroke-linecap="round" stroke-width="2.667" d="M26.667 26.667 5.334 5.334m21.333-.001L5.334 26.666" style="stroke:var(--color2, #fff)"/></symbol><symbol id="icon-connection" viewBox="0 0 32 32"><path fill="none" stroke="#fd9867" stroke-linecap="round" stroke-linejoin="round" stroke-width="2" d="M16 26.667h.013M2.667 11.76a20 20 0 0 1 26.666 0M6.667 17.145a13.33 13.33 0 0 1 18.666 0m-14 4.76a6.67 6.67 0 0 1 9.334 0" style="stroke:var(--color3, #fd9867)"/></symbol><symbol id="icon-eye" viewBox="0 0 32 32"><path fill="none" stroke="#fd9867" stroke-linecap="round" stroke-linejoin="round" stroke-width="2" d="M2.749 16.464a1.34 1.34 0 0 1 0-.928 14.333 14.333 0 0 1 26.5 0c.111.299.111.629 0 .928a14.333 14.333 0 0 1-26.5 0" style="stroke:var(--color3, #fd9867)"/><path fill="none" stroke="#fd9867" stroke-linecap="round" stroke-linejoin="round" stroke-width="2" d="M16 20a4 4 0 1 0 0-8 4 4 0 0 0 0 8" style="stroke:var(--color3, #fd9867)"/></symbol><symbol id="icon-eye-white" viewBox="0 0 32 32"><path fill="none" stroke="#fff" stroke-linecap="round" stroke-linejoin="round" stroke-width="2" d="M2.749 16.464a1.34 1.34 0 0 1 0-.928 14.333 14.333 0 0 1 26.5 0c.111.299.111.629 0 .928a14.333 14.333 0 0 1-26.5 0" style="stroke:var(--color2, #fff)"/><path fill="none" stroke="#fff" stroke-linecap="round" stroke-linejoin="round" stroke-width="2" d="M16 20a4 4 0 1 0 0-8 4 4 0 0 0 0 8" style="stroke:var(--color2, #fff)"/></symbol><symbol id="icon-focus" viewBox="0 0 32 32"><path fill="none" stroke="#fd9867" stroke-linecap="round" stroke-linejoin="round" stroke-width="2" d="M16 20a4 4 0 1 0 0-8 4 4 0 0 0 0 8M4 9.333V6.666a2.67 2.67 0 0 1 2.667-2.667h2.667M22.667 4h2.667a2.67 2.67 0 0 1 2.667 2.667v2.667M28 22.667v2.667a2.67 2.67 0 0 1-2.667 2.667h-2.667M9.333 28H6.666a2.67 2.67 0 0 1-2.667-2.667v-2.667" style="stroke:var(--color3, #fd9867)"/></symbol><symbol id="icon-heart" viewBox="0 0 32 32"><path fill="none" stroke="#fff" stroke-linecap="round" stroke-linejoin="round" stroke-width="2" d="M25.333 18.667c1.987-1.947 4-4.28 4-7.333a7.333 7.333 0 0 0-7.334-7.333c-2.347 0-4 .667-6 2.667-2-2-3.653-2.667-6-2.667a7.333 7.333 0 0 0-7.333 7.333c0 3.067 2 5.4 4 7.333L15.999 28z" style="stroke:var(--color2, #fff)"/></symbol><symbol id="icon-hexagon" viewBox="0 0 32 32"><path fill="none" stroke="#fff" stroke-linecap="round" stroke-linejoin="round" stroke-width="2.667" d="M28 21.333V10.666a2.66 2.66 0 0 0-1.333-2.307l-9.333-5.333a2.67 2.67 0 0 0-2.666 0L5.335 8.359a2.67 2.67 0 0 0-1.333 2.307v10.667a2.66 2.66 0 0 0 1.333 2.307l9.333 5.333a2.67 2.67 0 0 0 2.666 0l9.333-5.333A2.67 2.67 0 0 0 28 21.333" style="stroke:var(--color2, #fff)"/></symbol><symbol id="icon-layers" viewBox="0 0 32 32"><path fill="none" stroke="#fd9867" stroke-linecap="round" stroke-linejoin="round" stroke-width="2" d="M17.107 2.906a2.68 2.68 0 0 0-2.214 0l-11.427 5.2a1.33 1.33 0 0 0-.795 1.22 1.33 1.33 0 0 0 .795 1.22l11.44 5.213a2.66 2.66 0 0 0 2.214 0l11.44-5.2a1.33 1.33 0 0 0 .795-1.22 1.33 1.33 0 0 0-.795-1.22z" style="stroke:var(--color3, #fd9867)"/><path fill="none" stroke="#fd9867" stroke-linecap="round" stroke-linejoin="round" stroke-width="2" d="M2.667 16a1.33 1.33 0 0 0 .773 1.213l11.467 5.213a2.66 2.66 0 0 0 2.2 0l11.44-5.2A1.34 1.34 0 0 0 29.334 16" style="stroke:var(--color3, #fd9867)"/><path fill="none" stroke="#fd9867" stroke-linecap="round" stroke-linejoin="round" stroke-width="2" d="M2.667 22.666a1.33 1.33 0 0 0 .773 1.213l11.467 5.213a2.66 2.66 0 0 0 2.2 0l11.44-5.2a1.34 1.34 0 0 0 .787-1.226" style="stroke:var(--color3, #fd9867)"/></symbol><symbol id="icon-lightning" viewBox="0 0 32 32"><path fill="none" stroke="#fd9867" stroke-linecap="round" stroke-linejoin="round" stroke-width="2" d="M5.333 18.667a1.33 1.33 0 0 1-1.328-1.49c.03-.251.13-.488.289-.684l13.2-13.6a.665.665 0 0 1 1.117.174c.06.139.07.294.03.44l-2.56 8.027a1.33 1.33 0 0 0 .155 1.228 1.34 1.34 0 0 0 1.099.571h9.333a1.33 1.33 0 0 1 1.328 1.49c-.03.251-.13.488-.289.684l-13.2 13.6a.665.665 0 0 1-1.117-.174.67.67 0 0 1-.03-.44l2.56-8.027a1.34 1.34 0 0 0-.155-1.228 1.33 1.33 0 0 0-1.099-.571z" style="stroke:var(--color3, #fd9867)"/></symbol><symbol id="icon-menu" viewBox="0 0 41 32"><path fill="none" stroke="#fff" stroke-linecap="round" stroke-linejoin="round" stroke-width="2.133" d="M6.756 6.667h27.022M6.756 16h27.022M6.756 25.333h27.022" style="stroke:var(--color2, #fff)"/></symbol><symbol id="icon-no-connection" viewBox="0 0 32 32"><path fill="none" stroke="#fd9867" stroke-linecap="round" stroke-linejoin="round" stroke-width="2" d="M16 26.667h.013m-4.68-4.762a6.67 6.67 0 0 1 9.334 0m-14-4.76a13.33 13.33 0 0 1 6.893-3.587m11.773 3.587a13.4 13.4 0 0 0-2.676-2.031M2.667 11.76a20 20 0 0 1 5.569-3.524m21.097 3.524a20 20 0 0 0-15.05-5.019M2.667 2.667l26.667 26.667" style="stroke:var(--color3, #fd9867)"/></symbol><symbol id="icon-rating" viewBox="0 0 32 32"><path fill="#fd9867" stroke="#fd9867" stroke-linecap="round" stroke-linejoin="round" stroke-width="2" d="M15.367 3.06a.708.708 0 0 1 1.268 0l3.08 6.239a2.82 2.82 0 0 0 2.127 1.546l6.888 1.008a.71.71 0 0 1 .585.869.7.7 0 0 1-.193.337l-4.981 4.851a2.84 2.84 0 0 0-.814 2.504l1.176 6.853a.705.705 0 0 1-.647.828.7.7 0 0 1-.381-.081l-6.157-3.237a2.83 2.83 0 0 0-2.63 0l-6.156 3.237c-.117.062-.249.09-.381.08s-.259-.056-.366-.133a.71.71 0 0 1-.281-.694l1.175-6.852a2.82 2.82 0 0 0-.815-2.505l-4.981-4.849a.71.71 0 0 1-.181-.726.7.7 0 0 1 .574-.482l6.887-1.007c.454-.066.885-.241 1.255-.511s.671-.625.874-1.036l3.079-6.239z" style="fill:var(--color3, #fd9867);stroke:var(--color3, #fd9867)"/></symbol><symbol id="icon-smartphone" viewBox="0 0 32 32"><path fill="none" stroke="#fd9867" stroke-linecap="round" stroke-linejoin="round" stroke-width="2" d="M22.667 2.667H9.334a2.667 2.667 0 0 0-2.667 2.667v21.333a2.667 2.667 0 0 0 2.667 2.667h13.333a2.667 2.667 0 0 0 2.667-2.667V5.334a2.667 2.667 0 0 0-2.667-2.667M16 24h.013" style="stroke:var(--color3, #fd9867)"/></symbol><symbol id="icon-sound" viewBox="0 0 32 32"><path fill="none" stroke="#fd9867" stroke-linecap="round" stroke-linejoin="round" stroke-width="2" d="M14.667 6.269a.943.943 0 0 0-1.124-.921.94.94 0 0 0-.481.257L8.55 10.116a1.88 1.88 0 0 1-1.329.551H4A1.333 1.333 0 0 0 2.666 12v8A1.33 1.33 0 0 0 4 21.333h3.221a1.87 1.87 0 0 1 1.329.551l4.511 4.512a.94.94 0 0 0 1.026.205.94.94 0 0 0 .58-.87zM21.333 12a6.664 6.664 0 0 1 0 8m4.486 4.485a12 12 0 0 0 0-16.97" style="stroke:var(--color3, #fd9867)"/></symbol><symbol id="icon-square" viewBox="0 0 32 32"><path fill="none" stroke="#fff" stroke-linecap="round" stroke-linejoin="round" stroke-width="2" d="M25.333 4H6.666a2.667 2.667 0 0 0-2.667 2.667v18.667a2.667 2.667 0 0 0 2.667 2.667h18.667A2.667 2.667 0 0 0 28 25.334V6.667A2.667 2.667 0 0 0 25.333 4M4 12h24M4 20h24M12 4v24m8-24v24" style="stroke:var(--color2, #fff)"/></symbol><symbol id="icon-square-white" viewBox="0 0 32 32"><path fill="none" stroke="#fff" stroke-linecap="round" stroke-linejoin="round" stroke-width="2.667" d="M25.333 4H6.666a2.667 2.667 0 0 0-2.667 2.667v18.667a2.667 2.667 0 0 0 2.667 2.667h18.667A2.667 2.667 0 0 0 28 25.334V6.667A2.667 2.667 0 0 0 25.333 4" style="stroke:var(--color2, #fff)"/></symbol><symbol id="icon-star" viewBox="0 0 32 32"><path fill="none" stroke="#fd9867" stroke-linecap="round" stroke-linejoin="round" stroke-width="2" d="M13.249 20.667a2.67 2.67 0 0 0-1.916-1.916l-8.18-2.109a.662.662 0 0 1-.35-1.043c.088-.116.21-.2.35-.239l8.18-2.111a2.67 2.67 0 0 0 1.916-1.915l2.109-8.18c.039-.14.123-.264.239-.351s.258-.136.403-.136a.67.67 0 0 1 .642.487l2.108 8.18c.119.461.36.882.697 1.22s.758.578 1.219.696l8.18 2.108a.666.666 0 0 1 .353 1.047.67.67 0 0 1-.353.239l-8.18 2.108a2.67 2.67 0 0 0-1.916 1.916l-2.109 8.18c-.039.14-.123.264-.239.351s-.258.136-.403.136a.67.67 0 0 1-.642-.487l-2.108-8.18zM26.667 4v5.333m2.666-2.666H24m-18.667 16v2.667M6.667 24H4" style="stroke:var(--color3, #fd9867)"/></symbol><symbol id="icon-star-white" viewBox="0 0 32 32"><path fill="none" stroke="#fff" stroke-linecap="round" stroke-linejoin="round" stroke-width="2.667" d="M15.367 3.06a.708.708 0 0 1 1.268 0l3.08 6.239a2.82 2.82 0 0 0 2.127 1.546l6.888 1.008a.706.706 0 0 1 .392 1.206l-4.981 4.851a2.84 2.84 0 0 0-.815 2.503l1.176 6.853a.7.7 0 0 1-.281.694.7.7 0 0 1-.747.052l-6.157-3.237a2.83 2.83 0 0 0-2.63 0l-6.156 3.237c-.117.062-.249.09-.381.08s-.259-.056-.366-.133a.7.7 0 0 1-.281-.694l1.175-6.852a2.82 2.82 0 0 0-.815-2.505l-4.981-4.849a.71.71 0 0 1-.181-.726.7.7 0 0 1 .574-.482l6.887-1.007a2.83 2.83 0 0 0 2.129-1.547l3.079-6.239z" style="stroke:var(--color2, #fff)"/></symbol></defs></svg>